<?xml version="1.0" encoding="UTF-8"?>
<svg id="_layer_2" data-name="layer 2" xmlns="http://www.w3.org/2000/svg" viewBox="0 0 1181.88 96.93">
  <defs>
    <style>
      .cls-1 {
        fill: #fff;
      }
    </style>
  </defs>
  <g id="Foreground">
    <path class="cls-1" d="M1161.92,39.81c-5.53,0-10.24-1.94-14.13-5.81-3.88-3.87-5.83-8.56-5.83-14.05s1.95-10.27,5.86-14.14c3.9-3.87,8.59-5.81,14.07-5.81s10.2,1.94,14.11,5.83,5.87,8.56,5.87,14.03-1.94,10.24-5.83,14.13c-3.88,3.88-8.59,5.83-14.13,5.83ZM1161.77,2.24c-4.78,0-8.87,1.73-12.3,5.2-3.42,3.46-5.13,7.63-5.13,12.51s1.7,8.95,5.1,12.41c3.4,3.45,7.51,5.18,12.33,5.18s9.05-1.73,12.51-5.18c3.46-3.45,5.2-7.59,5.2-12.41s-1.74-9.05-5.21-12.51c-3.47-3.46-7.64-5.2-12.5-5.2ZM1168.23,32.25l-3.04-6.52c-.9-1.91-1.77-3.19-2.6-3.84-.83-.66-1.76-.98-2.78-.98h-2.58v11.34h-2.71V6.64h7.01c2.83,0,5.01.62,6.53,1.84s2.29,2.86,2.29,4.89c0,3.91-2.23,6.28-6.7,7.1v.09c1.5.31,2.91,1.86,4.24,4.64l3.38,7.04h-3.04ZM1157.22,8.73v10.05h4.64c1.72,0,3.1-.44,4.13-1.32s1.55-2.1,1.55-3.66c0-3.38-2.11-5.07-6.33-5.07h-4Z"/>
    <path class="cls-1" d="M115.97,21.91l-4.82,18h-61.49c-4.26,0-7.39.29-9.38.87-3.91,1.12-6.79,3.91-8.63,8.37-.23.55-.45,1.13-.68,1.76h76.98l-4.56,17H26.76c-.15,1.26-.21,2.35-.16,3.27.13,3.05,1.57,5.01,4.34,5.89,1.81.56,4.42.84,7.84.84h61.89l-5.09,19H30.75c-6.65,0-12.12-.4-16.4-1.21-6.58-1.21-10.67-4.52-12.25-9.94-.73-2.6-.82-5.86-.29-9.78.66-4.76,1.83-10.29,3.51-16.59,2.04-7.62,4.09-13.9,6.15-18.85.27-.66.57-1.31.89-1.95L0,21.91h115.97Z"/>
    <polygon class="cls-1" points="123.69 96.91 138.75 40.69 138.99 39.78 125.74 21.91 143.78 21.91 181.33 21.91 198.43 60.19 235.94 21.91 273.21 21.91 253.12 96.91 229.52 96.91 245.04 38.99 188.59 96.91 162.52 38.99 147.01 96.91 123.69 96.91"/>
    <path class="cls-1" d="M340.27,96.91h-28.47c-6.65,0-12.12-.4-16.4-1.21-6.58-1.21-10.67-4.52-12.25-9.94-.73-2.6-.82-5.86-.29-9.78.65-4.76,1.83-10.29,3.51-16.59,2.04-7.62,4.09-13.9,6.15-18.85.29-.69.6-1.37.93-2.03l-12.3-16.6h96.43c6.84,0,11.94.37,15.33,1.1,3.67.77,6.47,2.53,8.4,5.28,2.38,3.41,3.27,7.49,2.69,12.25-.59,4.95-1.91,11.23-3.95,18.85-1.69,6.3-3.48,11.83-5.38,16.59-1.56,3.92-3.4,7.18-5.53,9.78-4.49,5.42-10.35,8.74-17.58,9.94-4.71.81-10.4,1.21-17.05,1.21h-14.25ZM355.71,39.91h-25.01c-4.36,0-7.56.3-9.6.89-4,1.15-6.94,4.01-8.83,8.57-1.06,2.56-2.15,5.97-3.3,10.24-1.46,5.45-2.12,9.51-1.99,12.18.13,3.23,1.66,5.3,4.59,6.23,1.91.59,4.67.89,8.29.89h36.42c3.62,0,6.54-.3,8.77-.89,3.42-.93,6.06-3,7.93-6.23,1.57-2.67,3.08-6.73,4.54-12.18,1.14-4.27,1.87-7.68,2.19-10.24.56-4.56-.85-7.42-4.24-8.57-1.72-.59-4.77-.89-9.12-.89h-10.63Z"/>
    <path class="cls-1" d="M529.14,21.91l-4.82,18h-61.55c-4.25,0-7.36.29-9.35.87-3.9,1.12-6.77,3.9-8.6,8.35-1.03,2.49-2.1,5.82-3.21,9.97-1.42,5.31-2.07,9.27-1.94,11.87.13,3.14,1.62,5.17,4.47,6.07,1.86.58,4.55.87,8.08.87h61.63l-5.09,19h-64.82c-6.65,0-12.12-.4-16.4-1.21-6.58-1.21-10.67-4.52-12.25-9.94-.73-2.6-.82-5.86-.28-9.78.65-4.76,1.83-10.29,3.51-16.59,2.04-7.62,4.09-13.9,6.15-18.85.16-.39.33-.77.5-1.14l-12.96-17.48h116.95Z"/>
    <path class="cls-1" d="M596.57,96.91h-28.47c-6.65,0-12.12-.4-16.4-1.21-6.58-1.21-10.67-4.52-12.25-9.94-.73-2.6-.82-5.86-.29-9.78.65-4.76,1.83-10.29,3.51-16.59,2.04-7.62,4.09-13.9,6.15-18.85.29-.69.6-1.37.93-2.03l-12.3-16.6h96.43c6.84,0,11.94.37,15.33,1.1,3.67.77,6.47,2.53,8.4,5.28,2.38,3.41,3.27,7.49,2.69,12.25-.59,4.95-1.91,11.23-3.95,18.85-1.69,6.3-3.48,11.83-5.38,16.59-1.56,3.92-3.4,7.18-5.53,9.78-4.49,5.42-10.35,8.74-17.58,9.94-4.71.81-10.4,1.21-17.05,1.21h-14.25ZM612.01,39.91h-25.01c-4.36,0-7.56.3-9.6.89-4,1.15-6.94,4.01-8.83,8.57-1.06,2.56-2.15,5.97-3.3,10.24-1.46,5.45-2.12,9.51-1.99,12.18.13,3.23,1.66,5.3,4.59,6.23,1.91.59,4.67.89,8.29.89h36.42c3.62,0,6.54-.3,8.77-.89,3.42-.93,6.06-3,7.93-6.23,1.57-2.67,3.08-6.73,4.54-12.18,1.14-4.27,1.87-7.68,2.19-10.24.56-4.56-.85-7.42-4.24-8.57-1.72-.59-4.77-.89-9.12-.89h-10.63Z"/>
    <path class="cls-1" d="M724.77,96.91h-28.47c-6.65,0-12.12-.4-16.4-1.21-6.58-1.21-10.67-4.52-12.25-9.94-.73-2.6-.82-5.86-.29-9.78.65-4.76,1.83-10.29,3.51-16.59,2.04-7.62,4.09-13.9,6.15-18.85.29-.69.6-1.37.93-2.03l-12.3-16.6h96.43c6.84,0,11.94.37,15.33,1.1,3.67.77,6.47,2.53,8.4,5.28,2.38,3.41,3.27,7.49,2.69,12.25-.59,4.95-1.91,11.23-3.95,18.85-1.69,6.3-3.48,11.83-5.38,16.59-1.56,3.92-3.4,7.18-5.53,9.78-4.49,5.42-10.35,8.74-17.58,9.94-4.71.81-10.4,1.21-17.05,1.21h-14.25ZM740.21,39.91h-25.01c-4.36,0-7.56.3-9.6.89-4,1.15-6.94,4.01-8.83,8.57-1.06,2.56-2.15,5.97-3.3,10.24-1.46,5.45-2.12,9.51-1.99,12.18.13,3.23,1.66,5.3,4.59,6.23,1.91.59,4.67.89,8.29.89h36.42c3.62,0,6.54-.3,8.77-.89,3.42-.93,6.06-3,7.93-6.23,1.57-2.67,3.08-6.73,4.54-12.18,1.14-4.27,1.87-7.68,2.19-10.24.56-4.56-.85-7.42-4.24-8.57-1.72-.59-4.77-.89-9.12-.89h-10.63Z"/>
    <path class="cls-1" d="M907.65,96.91l15.13-56.47.18-.65-13.25-17.88h82.99c6.65,0,12.12.4,16.4,1.21,6.58,1.21,10.67,4.52,12.25,9.94.73,2.6.82,5.86.29,9.78-.66,4.76-1.83,10.29-3.52,16.59-2.04,7.62-4.09,13.9-6.15,18.84-1.97,4.76-5.06,8.85-9.26,12.25-3.41,2.75-7.15,4.51-11.23,5.28-3.78.73-9.08,1.1-15.92,1.1h-67.91ZM935.04,78.91h38.7c4.36,0,7.56-.3,9.6-.89,4-1.15,6.94-4.01,8.83-8.57,1.06-2.56,2.15-5.97,3.3-10.24,1.46-5.45,2.12-9.51,1.99-12.18-.13-3.23-1.66-5.3-4.59-6.23-1.91-.59-4.67-.89-8.29-.89h-39.09l-10.45,39Z"/>
    <path class="cls-1" d="M867.18,59.91c3.44,0,5.98-.28,7.63-.84,1.72-.59,3.19-1.79,4.4-3.6.64-.97,1.29-2.66,1.93-5.06,1.09-4.07.81-6.77-.86-8.09-.93-.7-2.18-1.13-3.77-1.3-.64-.07-2.06-.11-4.25-.11h-45.68l8.03,10h-22.64l-8.6-11.3-13.12-17.7h88.34c5.89,0,9.91.09,12.06.27,5.4.48,9.3,1.69,11.71,3.63,3.41,2.86,4.82,7.09,4.23,12.7-.33,3.15-1.05,6.8-2.16,10.94-2.18,8.13-4.63,14.13-7.34,17.97-3.47,4.87-7.77,8.03-12.91,9.45-1.45.41-3.26.73-5.42.98l13.96,19.05h-30.54l-24.03-37h29.02Z"/>
    <path class="cls-1" d="M1032.11,79.91l52.38.06s11.84-.67,14.07-1.67c2.11-.96,3.5-2.69,4.16-5.17.89-3.34-.37-3.48-2.74-4.33-1.42-.52-3.93-.8-7.52-.84-.7,0-2.93-.02-6.67-.06h-20.38c-5.65,0-10.49-.18-14.53-.55-6.53-.55-10.71-2.67-12.53-6.36-1.56-3.28-1.39-8.44.5-15.48.65-2.42,1.38-4.62,2.19-6.6l-12.61-17.01h43.15s2.79.33,4.27.27c3.58-.15,15.31-.27,15.31-.27l36.05.03,12.95,17.97h-48.72s-15.67.14-20.47.46c-3.56.25-5.98.97-7.27,2.14-1.11,1.04-1.36.44-1.78,2.01-.82,3.08.25,5.02,3.23,5.85.83.25,3.79.43,8.87.54h21.21c3.71,0,8.96.18,15.74.55,7.83.4,12.62,2.64,14.36,6.72,1.5,3.5,1.36,8.6-.44,15.3-2.25,8.38-5.7,14.34-10.36,17.87-3.52,2.66-8.7,4.33-15.56,5.03-7.34.73-28.34.53-28.34.53h-60.43l21.87-17Z"/>
  </g>
</svg>