<?xml version="1.0" encoding="UTF-8"?>
<svg id="_layer_2" data-name="layer 2" xmlns="http://www.w3.org/2000/svg" viewBox="0 0 635.54 636.05">
  <defs>
    <style>
      .cls-1 {
        fill: none;
        stroke: #fff;
        stroke-miterlimit: 10;
        stroke-width: .8px;
      }
    </style>
  </defs>
  <g id="_layer_1-2" data-name="layer 1">
    <g>
      <path class="cls-1" d="M171.11,45.17c-.02-.16-.04-.33-.06-.49l24.02-11.43c.18.14.41.38.68.71l-24.58,11.7c-.02-.16-.04-.33-.06-.49ZM171.17,42.38l22.12-10.52.83.64-23.03,10.96c0-.46.04-.82.09-1.08ZM171.36,46.78l25.22-12,.61.75-25.64,12.2-.19-.95ZM171.52,40.49c.06-.18.09-.37.12-.57l19.37-9.22c.17.11.34.2.52.27.18.07.35.16.52.27l-20.64,9.82c.02-.2.06-.39.12-.57ZM171.94,49.27c-.07-.14-.11-.29-.13-.46l10.49-4.99c-.26.41-.34.8-.23,1.15l-10,4.76c-.02-.16-.06-.32-.13-.46ZM172.47,50.75l10-4.76.4.85-10.07,4.79c-.19-.41-.31-.7-.33-.88ZM187.67,30.04c.23,0,.46.03.68.07.22.04.42.07.61.1l-16.41,7.81.75-1.14,14.37-6.84ZM173.27,52.79l10.14-4.83.4.84-10.14,4.83-.03-.07-.37-.78ZM174.04,54.41l10.14-4.83.5,1.06-10.14,4.83-.5-1.06ZM174.91,56.24l10.14-4.83.5,1.06-10.14,4.83-.5-1.06ZM175.78,58.07l10.14-4.83.5,1.06-10.14,4.83-.5-1.06ZM182.39,31.21c.32-.12.67-.25,1.07-.38l-6.9,3.28c.31-.2.61-.39.9-.56.29-.17.6-.33.93-.49l3.03-1.44c.33-.16.65-.29.97-.42ZM176.65,59.9l10.14-4.83.5,1.06-10.14,4.83-.5-1.06ZM177.52,61.73l10.14-4.83.5,1.06-10.14,4.83-.5-1.06ZM178.46,63.7l10.14-4.83.5,1.06-10.14,4.83-.5-1.06ZM179.27,65.39l10.11-4.9.6,1.27-10.14,4.83-.57-1.2ZM180.1,67.15l10.14-4.83.6,1.27-10.14,4.83-.6-1.27ZM180.97,68.99l10.14-4.83.6,1.27-10.14,4.83-.6-1.27ZM181.85,70.82l10.14-4.83.6,1.27-10.14,4.83-.6-1.27ZM182.85,72.93l10.14-4.83.6,1.27-10.14,4.83-.6-1.27ZM183.66,74.62l10.14-4.83.67,1.41-10.14,4.83-.67-1.41ZM184.53,76.45l10.14-4.83.67,1.41-10.14,4.83-.67-1.41ZM185.4,78.28l10.14-4.83.67,1.41-10.14,4.83-.67-1.41ZM186.27,80.11l10.14-4.83.67,1.41-10.14,4.83-.67-1.41ZM187.14,81.95l10.14-4.83.67,1.41-10.14,4.83-.67-1.41ZM187.38,41.41l10.42-4.96c.27.33.45.59.54.78l-10,4.76c-.2-.31-.53-.5-.97-.58ZM187.98,83.71l10.14-4.83.77,1.62-10.14,4.83-.77-1.62ZM188.85,85.54l10.14-4.83.77,1.62-10.14,4.83-.77-1.62ZM188.88,42.94l10.07-4.79c.17.36.33.63.47.81l-10.14,4.83-.4-.84ZM189.72,87.37l10.14-4.83.77,1.62-10.14,4.83-.77-1.62ZM189.82,44.91l10.14-4.83.37.78.03.06-10.14,4.83-.4-.85ZM190.59,46.53l10.14-4.83.5,1.06-10.14,4.83-.5-1.06ZM190.59,89.2l10.14-4.83.77,1.62-10.14,4.83-.77-1.62ZM191.43,90.96l10.14-4.83.77,1.62-10.14,4.83-.77-1.62ZM191.46,48.36l10.14-4.83.5,1.06-10.14,4.83-.5-1.06ZM192.3,92.79l10.14-4.83.77,1.62-10.14,4.83-.07-.14-.7-1.48ZM192.33,50.19l10.14-4.83.5,1.06-10.14,4.83-.5-1.06ZM207.5,104.87c-1.58.26-3.18.13-4.81-.39s-3.26-1.55-4.88-3.08c-1.62-1.53-3.17-3.79-4.65-6.77l10.14-4.83,1.27,2.68c.31.66.64,1.05.99,1.17.35.12.85.03,1.51-.29l3.03-1.44c.66-.31,1.05-.64,1.17-.99.12-.35.03-.85-.28-1.51l-1.27-2.68,10.14-4.83c1.43,3,2.21,5.63,2.36,7.86.14,2.24-.1,4.15-.72,5.74-.62,1.59-1.55,2.92-2.76,3.99-1.22,1.07-2.49,1.92-3.8,2.54l-3.03,1.44c-1.36.65-2.83,1.1-4.41,1.36ZM193.2,52.02l10.14-4.83.5,1.06-10.14,4.83-.5-1.06ZM194.08,53.86l10.14-4.83.5,1.06-10.14,4.83-.5-1.06ZM195.01,55.83l10.14-4.83.5,1.06-10.14,4.83-.5-1.06ZM195.82,57.52l10.14-4.83.33.71-1.27.6-7.54,3.59-1.34.64-.33-.7ZM216.32,74.46l-10.14,4.83-.03-.07,1.34-.64,7.54-3.58,1.27-.6.03.07ZM217.19,76.29l-10.14,4.83-.3-.63-.47-.99,10.14-4.83.47.99.3.63ZM218.06,78.12l-10.14,4.83-.77-1.62,10.14-4.83.77,1.62ZM218.9,79.88l-10.14,4.83-.77-1.62,10.14-4.83.77,1.62ZM219.77,81.71l-10.14,4.83-.77-1.62,10.14-4.83.7,1.48.07.14Z"/>
      <path class="cls-1" d="M230.16,94.89l-1.34.43-.43-1.34-18.68-58.47c-1-3.12-1.44-5.79-1.33-8.01.11-2.22.57-4.07,1.38-5.56.81-1.49,1.86-2.67,3.17-3.55,1.3-.88,2.65-1.54,4.03-1.98l3.12-1c1.39-.44,2.87-.68,4.44-.72,1.57-.04,3.12.32,4.64,1.06,1.52.74,2.97,1.99,4.34,3.73s2.56,4.18,3.56,7.3l18.68,58.47.43,1.34-1.34.43-7.73,2.47-1.34.43-.43-1.34-11.75-36.78-1.19.38-4.16,1.33-1.19.38,11.75,36.78.43,1.34-1.34.43-7.73,2.47ZM223.68,43.33l2.97-.95.67-.21,2.9-.93-4.56-14.27c-.22-.69-.49-1.11-.81-1.26-.32-.14-.8-.11-1.44.09l-3.12,1c-.69.22-1.12.48-1.27.77-.15.29-.12.79.1,1.48l4.56,14.27Z"/>
      <path class="cls-1" d="M284.41,80.94l-24.61,4.59-1.46.27-.27-1.46-13.74-73.77-.27-1.46,1.46-.27,8.2-1.53,1.38-.26.27,1.46,11.96,64.18,15.03-2.8,1.38-.26.26,1.38,1.53,8.21.27,1.46-1.38.26Z"/>
      <path class="cls-1" d="M310.85,78.98l-8.34.28-1.25.04-.27-1.16-6.9-42.38,1.43,42.25.05,1.48-1.4.05-8.34.28-1.48.05-.05-1.48-2.54-74.99-.05-1.48,1.48-.05,10.91-.37,2.1-.07.35,1.08,9.27,43.24,5.7-43.66.2-1.18,3.12-.11,10.06-.34,1.4-.05.05,1.48,2.54,74.99.05,1.48-1.4.05-8.34.28-1.48.05-.05-1.48-1.43-42.25-4.02,42.75-.2,1.18-1.17.04Z"/>
      <path class="cls-1" d="M372.19,84.29c-1.37-.83-2.5-1.96-3.4-3.42-.9-1.45-1.47-3.29-1.71-5.51-.24-2.22.05-4.94.87-8.17l10.85,2.92-.77,2.86c-.19.7-.19,1.21,0,1.53.18.32.63.57,1.33.76l3.24.87c.7.19,1.21.19,1.53,0,.32-.18.57-.63.76-1.33l.77-2.86,10.85,2.92c-.86,3.21-1.97,5.72-3.31,7.51-1.34,1.79-2.77,3.09-4.28,3.9s-3.07,1.22-4.7,1.24c-1.62.02-3.14-.16-4.54-.54l-3.24-.87c-1.46-.39-2.87-1-4.23-1.83ZM368.47,65.24l10.85,2.92-.47,1.73-10.85-2.92.04-.15.43-1.58ZM368.99,63.28l10.85,2.92-.47,1.73-10.85-2.92.47-1.73ZM369.5,61.4l10.85,2.92-.47,1.73-10.85-2.92.47-1.73ZM370.03,59.44l10.85,2.92-.47,1.73-10.85-2.92.47-1.73ZM370.55,57.48l10.85,2.92-.47,1.73-10.85-2.92.47-1.73ZM371.08,55.52l10.85,2.92-.47,1.73-10.85-2.92.47-1.73ZM371.59,53.64l10.85,2.92-.41,1.51-10.85-2.92.41-1.51ZM372.11,51.68l10.85,2.92-.41,1.51-10.85-2.92.41-1.51ZM372.64,49.72l10.85,2.92-.41,1.51-10.85-2.92.41-1.51ZM373.17,47.76l10.85,2.92-.41,1.51-10.85-2.92.41-1.51ZM373.7,45.81l10.85,2.92-.41,1.51-10.85-2.92.41-1.51ZM374.18,44l10.85,2.92-.37,1.36-10.85-2.92.37-1.36ZM374.79,41.74l10.85,2.92-.36,1.36-10.85-2.92.36-1.36ZM375.32,39.78l10.85,2.92-.37,1.36-10.85-2.92.37-1.36ZM375.84,37.82l10.85,2.92-.36,1.36-10.85-2.92.37-1.36ZM376.35,35.94l10.87,2.84-.37,1.36-10.85-2.92.34-1.28ZM376.84,34.13l10.85,2.92-.3,1.13-10.85-2.92.3-1.13ZM377.4,32.02l10.85,2.92-.3,1.13-10.85-2.92.3-1.13ZM377.93,30.06l10.85,2.92-.3,1.13-10.85-2.92.3-1.13ZM378.46,28.11l10.85,2.92-.3,1.13-10.85-2.92.3-1.13ZM378.98,26.15l10.85,2.92-.3,1.13-10.85-2.92.3-1.13ZM379.51,24.19l10.85,2.92-.3,1.13-10.85-2.92.3-1.13ZM379.98,22.46l10.85,2.92-.24.9-10.85-2.92.02-.07.22-.83ZM380.7,20.39l10.7,2.88-.24.9-10.77-2.9c.12-.44.22-.73.32-.88ZM381.25,18.92c.04-.15.11-.29.2-.43l11.22,3.02c-.47.14-.78.38-.92.72l-10.7-2.88c.09-.14.16-.28.2-.43ZM382.43,16.65l26.97,7.25-.02.96-27.42-7.38.47-.84ZM383.28,15.27c.09-.14.18-.27.27-.41l25.68,6.91c.05.23.06.56.06.99l-26.29-7.07c.09-.14.18-.27.27-.41ZM385.14,13.18l23.65,6.36.21,1.03-24.63-6.63c.31-.35.57-.6.77-.76ZM396.55,74.65l-10.85-2.92.47-1.73,10.85,2.92-.43,1.58-.04.15ZM386.64,11.97c.16-.1.31-.22.46-.36l20.71,5.57c.06.19.13.37.22.54.09.17.16.35.22.54l-22.07-5.94c.14-.14.3-.26.46-.36ZM397.07,72.69l-10.85-2.92.47-1.73,10.85,2.92-.47,1.73ZM397.58,70.81l-10.85-2.92.47-1.73,10.85,2.92-.47,1.73ZM398.11,68.85l-10.85-2.92.18-.68.28-1.05,10.85,2.92-.28,1.05-.18.68ZM398.63,66.89l-10.85-2.92.02-.08,1.43.38,8.06,2.17,1.36.37-.02.08ZM405.7,14.51c.17.16.33.32.47.49.14.17.27.33.4.47l-17.55-4.72,1.31-.37,15.37,4.13ZM394.05,40.7l10.85,2.92-.2.75-1.36-.36-8.06-2.17-1.43-.39.2-.75ZM394.54,38.89l10.85,2.92-.3,1.13-10.85-2.92.3-1.13ZM400.93,11.98c.32.11.67.25,1.06.41l-7.38-1.99c.36.04.71.1,1.05.16.33.06.67.14,1.03.24l3.24.87c.35.09.69.2,1.01.31ZM395.1,36.78l10.85,2.92-.3,1.13-10.85-2.92.3-1.13ZM395.63,34.83l10.85,2.92-.3,1.13-10.85-2.92.3-1.13ZM396.16,32.87l10.85,2.92-.3,1.13-10.85-2.92.3-1.13ZM396.68,30.91l10.85,2.92-.3,1.13-10.85-2.92.3-1.13ZM397.21,28.95l10.85,2.92-.3,1.13-10.85-2.92.3-1.13ZM397.68,27.22l10.85,2.92-.22.83-.02.07-10.85-2.92.24-.9ZM398.25,25.11l10.77,2.9c-.1.38-.16.69-.17.92l-10.85-2.92.24-.9ZM398.09,22.97l11.15,3c0,.43-.04.74-.09.94l-10.7-2.88c.04-.36-.08-.72-.36-1.07Z"/>
      <path class="cls-1" d="M421.72,93.69c-1.56,1.69-3.17,2.86-4.8,3.51-1.64.65-3.28.88-4.91.68-1.63-.19-3.14-.57-4.53-1.15l-3.09-1.27c-1.39-.57-2.72-1.36-4-2.36-1.27-1-2.27-2.31-3.01-3.94s-1.06-3.59-.99-5.89c.08-2.3.77-5.04,2.07-8.21l17.31-42.13c1.3-3.17,2.74-5.61,4.3-7.3,1.56-1.69,3.18-2.85,4.84-3.49,1.66-.64,3.3-.86,4.91-.68,1.61.18,3.11.56,4.5,1.13l3.09,1.27c1.39.57,2.73,1.36,4.03,2.37,1.3,1.01,2.3,2.32,3.01,3.94.71,1.61,1.03,3.57.95,5.87-.08,2.3-.77,5.04-2.07,8.21l-17.31,42.13c-1.3,3.17-2.74,5.61-4.3,7.3ZM434.23,36.89c.28-.67.33-1.18.17-1.53-.17-.35-.58-.66-1.26-.94l-3.1-1.27c-.67-.28-1.18-.34-1.52-.2-.34.14-.65.55-.92,1.22l-19.86,48.34c-.28.67-.34,1.18-.2,1.52.14.34.55.65,1.22.92l3.1,1.27c.67.28,1.19.35,1.55.22.36-.13.68-.54.96-1.21l19.86-48.34Z"/>
      <path class="cls-1" d="M429.47,106.36l-7.21-4.2-1.28-.75.75-1.28,37.73-64.86.75-1.28,1.28.75,8.63,5.02,1.01.59-.35,1.06-13.52,40.77,20.94-36,.75-1.28,1.28.75,7.21,4.2,1.21.71-.75,1.28-37.73,64.86-.75,1.28-1.21-.71-8.7-5.06-.94-.55.28-1.1,11.75-37.74-19.18,32.97-.75,1.28-1.21-.71Z"/>
      <path class="cls-1" d="M500.47,72.81l-9.74,12.68,10.33,7.94,1.18.9-.86,1.11-5.23,6.8-.86,1.11-1.17-.9-10.33-7.94-23.05,29.99-.9,1.17-1.17-.9-6.56-5.04-1.17-.9.9-1.18,45.73-59.49.9-1.17,1.17.9,19.93,15.42-.86,1.11-5.09,6.62-.9,1.18-.74-.57-11.5-8.84Z"/>
      <path class="cls-1" d="M547.44,99.24l1,.98-1.04,1.06-42.11,42.82c-2.37,2.41-4.6,4.1-6.69,5.08-2.09.97-4,1.45-5.72,1.43-1.73-.02-3.3-.42-4.73-1.2-1.42-.78-2.67-1.7-3.75-2.75l-2.39-2.35c-1.08-1.06-2-2.28-2.79-3.67-.78-1.39-1.21-2.96-1.28-4.71-.07-1.75.37-3.67,1.3-5.78.94-2.1,2.59-4.36,4.96-6.77l42.11-42.82,1.04-1.06,1.06,1.04,5.95,5.85,1,.98-1.04,1.06-44.46,45.21c-.51.52-.76.96-.76,1.33,0,.37.26.81.78,1.32l2.39,2.35c.52.51.96.76,1.33.76.37,0,.81-.26,1.32-.78l44.46-45.21,1.04-1.06,1.06,1.04,5.95,5.85Z"/>
      <path class="cls-1" d="M569.84,124.89c.63,1.52.86,3.15.68,4.91-.18,1.75-.86,3.61-2.06,5.58s-3.15,4.01-5.85,6.13l-3.99,3.13-1.17.92-.91-1.16-5.17-6.58-.86-1.1,1.1-.87,6.62-5.21c.08-.06.18-.19.3-.38.11-.19.18-.44.2-.75.02-.31-.05-.7-.22-1.17-.17-.46-.49-1-.97-1.62-.87-1.1-1.63-1.73-2.27-1.88-.65-.15-1.14-.1-1.46.16l-5.89,4.63c-.12.1-.48.46-1.08,1.09s-1.17,1.69-1.72,3.18c-.98,2.54-1.83,5.16-2.56,7.84-.73,2.69-1.44,5.45-2.12,8.29-1.7,7.26-4.04,12.07-7.02,14.41l-9.87,7.76c-3.43,2.7-6.71,3.87-9.83,3.52-3.12-.35-6.04-2.26-8.77-5.73l-2.07-2.63c-2.69-3.42-3.85-6.71-3.47-9.84.38-3.14,2.29-6.05,5.72-8.75l6.62-5.21,1.17-.92.05.06.87,1.1,5.21,6.62.92,1.17-1.1.87-6.62,5.21c-.37.29-.55.77-.56,1.43,0,.67.34,1.52,1.03,2.57.97,1.15,1.76,1.81,2.35,1.98.59.16,1.13.05,1.62-.33l5.21-4.1.67-.53.12-.1c.61-.48,1.22-1.12,1.81-1.92.59-.8.96-1.41,1.08-1.84.99-2.7,1.89-5.46,2.71-8.29.82-2.83,1.59-5.75,2.33-8.78,1.69-7.35,4.01-12.18,6.96-14.5l6.62-5.21c2.7-2.12,5.14-3.53,7.34-4.23,2.19-.7,4.17-.92,5.93-.66,1.76.26,3.3.87,4.61,1.82,1.31.95,2.43,2.02,3.36,3.2l2.07,2.63c.93,1.18,1.71,2.53,2.34,4.05Z"/>
      <path class="cls-1" d="M515.3,183.27l-.8-1.25,1.25-.8,63.19-40.46,1.25-.8.8,1.25,4.5,7.03.76,1.18-1.25.8-63.19,40.46-1.25.8-.76-1.18-4.5-7.03Z"/>
      <path class="cls-1" d="M542.47,215.21c-2.29.27-4.26.12-5.93-.45-1.67-.57-3.06-1.46-4.17-2.67s-2.02-2.48-2.7-3.82l-1.53-2.98c-.69-1.34-1.19-2.8-1.51-4.39-.32-1.59-.23-3.24.27-4.95.5-1.71,1.52-3.42,3.07-5.12,1.55-1.7,3.86-3.33,6.91-4.9l40.53-20.79c3.05-1.57,5.72-2.49,8.01-2.75,2.29-.27,4.27-.11,5.95.49s3.07,1.48,4.17,2.67c1.1,1.18,2,2.44,2.69,3.78l1.53,2.98c.69,1.34,1.19,2.81,1.52,4.42s.24,3.26-.27,4.95c-.51,1.69-1.54,3.38-3.09,5.08-1.55,1.7-3.86,3.33-6.91,4.9l-40.53,20.79c-3.05,1.57-5.72,2.48-8.01,2.75ZM588.87,180.14c.65-.33,1.02-.69,1.12-1.06.1-.37-.01-.88-.35-1.53l-1.53-2.98c-.33-.65-.67-1.03-1.02-1.14-.35-.11-.85,0-1.5.33l-46.5,23.85c-.65.33-1.03.67-1.14,1.02-.11.35,0,.85.33,1.5l1.53,2.98c.33.65.68,1.04,1.04,1.17.36.13.87.04,1.51-.29l46.5-23.85Z"/>
      <path class="cls-1" d="M540.14,229.88l-2.76-7.88-.49-1.4,1.4-.49,70.82-24.79,1.4-.49.49,1.4,3.3,9.42.39,1.1-.95.58-36.77,22.21,39.31-13.76,1.4-.49.49,1.4,2.76,7.88.46,1.33-1.4.49-70.82,24.79-1.4.49-.46-1.33-3.32-9.5-.36-1.03.93-.66,33.46-21.05-36,12.6-1.4.49-.46-1.33Z"/>
      <path class="cls-1" d="M571.12,285.69l.75,11.21-14.55.97-1.48.1-.1-1.48-.55-8.25-.1-1.48,1.48-.1,14.55-.97ZM573.15,285.55l.75,11.21-1.79.12-.75-11.21,1.79-.12ZM575.17,285.42l.75,11.21-1.79.12-.75-11.21,1.79-.12ZM577.19,285.28l.75,11.21-1.79.12-.75-11.21,1.79-.12ZM579.14,285.15l.75,11.21-1.79.12-.75-11.21,1.79-.12ZM581.09,285.02l.75,11.21-1.79.12-.75-11.21,1.79-.12ZM582.88,284.9l.75,11.21-1.56.1-.75-11.21,1.56-.1ZM584.9,284.77l.75,11.21-1.56.1-.75-11.21,1.56-.1ZM586.92,284.63l.75,11.21-1.56.1-.75-11.21,1.56-.1ZM588.87,284.5l.75,11.21-1.56.1-.75-11.21,1.56-.1ZM590.81,284.37l.75,11.21-1.56.1-.75-11.21,1.56-.1ZM593.38,284.2l.2,11.24-1.56.1-.75-11.21,2.1-.14ZM595.25,284.08l1.71,25.68-.93.06-.1-1.48-.87-13-1.01.07-.2-11.24,1.4-.09ZM597.35,283.94l1.71,25.68-1.4.09-1.71-25.68,1.4-.09ZM599.38,283.8l1.71,25.68-1.4.09-1.71-25.68,1.4-.09ZM601.4,283.67l1.71,25.68-1.4.09-1.71-25.68,1.4-.09ZM603.42,283.53l1.71,25.68-1.4.09-1.71-25.68,1.4-.09ZM605.29,283.41l1.71,25.68-1.02.07h-.15s-1.71-25.67-1.71-25.67l1.17-.08ZM607.39,283.27l.75,11.21-1.17.08-.75-11.21,1.17-.08ZM609.42,283.13l.75,11.21-1.17.08-.75-11.21,1.17-.08ZM611.44,283l.75,11.21-1.17.08-.75-11.21,1.17-.08ZM613.46,282.86l.75,11.21-1.17.08-.75-11.21,1.17-.08ZM615.56,282.72l.75,11.21-1.17.08-.75-11.21,1.17-.08ZM617.35,282.6l.75,11.21-.93.06-.75-11.21.93-.06ZM619.46,282.46l.75,11.21-.93.06-.75-11.21.93-.06ZM621.48,282.33l.75,11.21-.93.06-.75-11.21.93-.06ZM623.5,282.19l1.78,26.62-.39.03-.54.04-1.78-26.62.93-.06ZM625.6,282.05l1.78,26.62-.93.06-1.78-26.62.93-.06ZM627.63,281.91l1.78,26.62-.93.06-1.78-26.62.93-.06ZM629.49,281.79l1.78,26.62-.78.05-1.78-26.62.78-.05ZM631.52,281.65l1.78,26.62h-.08s-.62.05-.62.05l-1.78-26.62.62-.04h.08ZM633.02,283.04l1.6,25.14h-.08s-1.78-26.61-1.78-26.61h.16s.1,1.47.1,1.47Z"/>
      <path class="cls-1" d="M557.11,316.17l.08-1.4,1.4.08,61.29,3.51c3.27.19,5.92.73,7.95,1.63,2.03.9,3.6,1.99,4.7,3.28,1.1,1.29,1.82,2.69,2.18,4.23.35,1.53.49,3.02.41,4.48l-.19,3.27c-.08,1.45-.39,2.92-.92,4.4-.53,1.48-1.41,2.8-2.65,3.95-1.24,1.15-2.92,2.06-5.04,2.72-2.12.66-4.82.9-8.09.71l-61.29-3.51-1.4-.08.08-1.4.46-8.1.08-1.4,1.4.08,38.55,2.21.07-1.25.25-4.36.07-1.25-38.55-2.21-1.4-.08.08-1.4.46-8.1ZM607.58,328.59l-.18,3.12-.04.7-.17,3.04,14.95.86c.73.04,1.21-.06,1.46-.31.25-.25.39-.71.43-1.38l.19-3.27c.04-.73-.05-1.21-.27-1.46-.22-.25-.69-.39-1.42-.43l-14.95-.86Z"/>
      <path class="cls-1" d="M627.19,386.92l-.27,1.46-1.38-.25-8.21-1.51-1.38-.25.27-1.46,1.55-8.44-64.21-11.78-1.46-.27.25-1.38,1.51-8.21.27-1.46,1.46.27,64.21,11.78,1.53-8.36.27-1.46,1.38.25,8.21,1.51,1.46.27-.27,1.46-5.19,27.83Z"/>
      <path class="cls-1" d="M549.29,377.17l.41-1.42,1.42.41,72.12,20.72,1.42.41-.41,1.42-2.3,8.02-.39,1.35-1.42-.41-72.12-20.72-1.42-.41.39-1.35,2.3-8.02Z"/>
      <path class="cls-1" d="M544.07,397.33c.99-1.23,2.26-2.2,3.83-2.89,1.56-.7,3.48-1.02,5.75-.96,2.27.06,4.95.7,8.05,1.92l41.94,16.55c3.14,1.24,5.56,2.63,7.25,4.16,1.69,1.53,2.87,3.11,3.54,4.75.67,1.63.93,3.25.78,4.83-.15,1.59-.5,3.08-1.06,4.49l-1.23,3.12c-.55,1.4-1.32,2.75-2.31,4.04s-2.27,2.29-3.87,3c-1.6.71-3.53,1.05-5.81,1.02-2.28-.03-4.99-.67-8.13-1.91l-6.09-2.4.51-1.31,3.06-7.76.54-1.38,9.21,3.63c.68.27,1.18.33,1.52.18.34-.15.64-.56.91-1.24l1.23-3.12c.27-.68.33-1.18.18-1.52-.15-.34-.56-.64-1.24-.91l-48.18-19.01c-.68-.27-1.18-.33-1.52-.18-.34.15-.64.56-.91,1.24l-1.23,3.12c-.27.68-.33,1.18-.18,1.52.15.34.56.64,1.24.91l24.38,9.62.77-1.96.52-1.31,1.31.52,7.76,3.06,1.38.54-.52,1.31-4.38,11.1-.51,1.31-1.38-.54-44.26-17.46-1.38-.54.52-1.31.69-1.74,2.38-6.02.54-1.38,1.4-3.55.52-1.31.14-.36c.58-1.34,1.37-2.62,2.36-3.85Z"/>
      <path class="cls-1" d="M589.58,481.06l-.68,1.23-1.29-.72-52.47-29.23c-2.95-1.64-5.17-3.34-6.67-5.1-1.49-1.75-2.46-3.47-2.9-5.14-.44-1.67-.47-3.3-.1-4.88.37-1.58.93-3.03,1.66-4.34l1.63-2.93c.73-1.32,1.67-2.54,2.8-3.66,1.13-1.12,2.53-1.95,4.2-2.48,1.67-.53,3.64-.62,5.91-.28,2.28.34,4.89,1.34,7.85,2.99l52.47,29.23,1.29.72-.72,1.29-4.06,7.29-.68,1.23-1.29-.72-55.4-30.86c-.64-.35-1.13-.48-1.48-.38-.35.1-.71.47-1.06,1.11l-1.63,2.93c-.35.64-.48,1.13-.38,1.48s.47.71,1.1,1.06l55.4,30.86,1.29.72-.72,1.29-4.06,7.29Z"/>
      <path class="cls-1" d="M504.47,467.19l14.57-19.98.87-1.2,1.2.87,60.63,44.21,1.2.87-.87,1.2-14.57,19.98-.28.38-1.2-.87-6.74-4.92-1.2-.87.28-.38,8.82-12.1-12.86-9.37-7.67,10.53-.87,1.2-1.2-.87-6.93-5.05-1.13-.83.87-1.2,7.67-10.53-22.69-16.54-8.82,12.1-.28.38-1.13-.83-6.74-4.92-1.2-.87.28-.38Z"/>
      <path class="cls-1" d="M477.46,516.53l-8.73,7.06-1.86-2.3c-1.7-2.1-2.82-4.04-3.35-5.82s-.67-3.39-.4-4.84c.26-1.45.82-2.73,1.65-3.85.84-1.11,1.76-2.08,2.77-2.9l12.37-10.01,1.15-.93.93,1.15,9.17,11.34-8.73,7.06-3.04-3.76-3.52,2.84c-.57.46-.87.87-.91,1.24-.04.37.17.83.63,1.4l1.86,2.3ZM478.73,518.11l-8.73,7.06-1.13-1.39,8.73-7.06,1.13,1.4ZM480.01,519.68l-8.73,7.06-1.13-1.39,8.73-7.06,1.13,1.39ZM481.23,521.2l-8.73,7.06-1.13-1.4,8.73-7.06,1.13,1.39ZM482.51,522.78l-8.73,7.06-1.13-1.39,8.73-7.06,1.13,1.4ZM483.78,524.35l-8.73,7.06-1.13-1.39,8.73-7.06,1.13,1.39ZM485.06,525.93l-8.73,7.06-1.13-1.4,8.73-7.06,1.13,1.39ZM486.29,527.44l-8.73,7.06-.98-1.21,8.73-7.06.98,1.21ZM487.56,529.02l-8.73,7.06-.98-1.21,8.73-7.06.98,1.21ZM488.84,530.6l-8.73,7.06-.98-1.21,8.73-7.06.98,1.21ZM490.11,532.18l-8.73,7.06-.98-1.21,8.73-7.06.98,1.21ZM491.45,533.7l-8.79,7.11-.25-.3-.74-.91,8.73-7.06.74.91c.13.16.23.25.31.25ZM482.58,512.69l8.73-7.06,1.13,1.39-8.73,7.06-1.13-1.39ZM506.27,524.12l-22.26,18c-.4-.25-.76-.56-1.07-.94l8.98-7.26c.52.07,1.08-.05,1.66-.37.58-.32,1.07-.64,1.48-.96l2.18-1.77-.59-.73,8.73-7.06.88,1.09ZM483.85,514.26l8.73-7.06,1.13,1.39-8.73,7.06-1.13-1.4ZM507.74,525.94l-21.71,17.56c-.44-.21-.87-.46-1.31-.75l22.14-17.9.88,1.09ZM485.08,515.78l8.73-7.06,1.13,1.4-8.73,7.06-1.13-1.39ZM486.35,517.36l8.73-7.06,1.13,1.39-8.73,7.06-1.13-1.39ZM509.02,527.52l-20.5,16.58c-.56-.04-1.16-.16-1.79-.36l21.41-17.31.88,1.09ZM487.63,518.93l8.73-7.06,1.13,1.4-8.73,7.06-1.13-1.4ZM488.9,520.51l8.73-7.06,1.13,1.4-8.73,7.06-1.13-1.39ZM510.29,529.1l-20.32,16.43c.06-.26.12-.52.17-.78.06-.26.14-.54.23-.83-.16.05-.42.09-.81.12l19.83-16.04.88,1.09ZM511.57,530.67l-21.65,17.51c-.12-.47-.15-1.05-.09-1.73l20.86-16.87.88,1.09ZM512.7,532.07l-22.2,17.95c-.17-.3-.32-.68-.43-1.16l21.89-17.71.74.91ZM490.28,522.21l8.73-7.06.98,1.21-8.73,7.06-.98-1.21ZM500.42,544.8l-8.79,7.11c-.32-.39-.54-.71-.68-.96l9.64-7.8c-.26.5-.32,1.05-.17,1.65ZM491.55,523.79l8.73-7.06.98,1.21-8.73,7.06-.98-1.21ZM501.64,546.43l-8.73,7.06-.74-.91,8.73-7.06.74.91ZM492.83,525.36l8.73-7.06.98,1.21-8.73,7.06-.98-1.21ZM502.91,548l-8.73,7.06-.74-.91,8.73-7.06.74.91ZM494.1,526.94l8.73-7.06.98,1.21-8.73,7.06-.98-1.21ZM504.19,549.58l-8.73,7.06-.74-.91,8.73-7.06.74.91ZM495.38,528.52l8.73-7.06.98,1.21-8.73,7.06-.98-1.21ZM505.46,551.16l-8.73,7.06-.74-.91,8.73-7.06.74.91ZM506.59,552.55l-8.73,7.06-.59-.73,8.73-7.06.59.73ZM507.97,554.25l-8.73,7.06-.59-.73,8.73-7.06.59.73ZM509.78,554.94c.3-.08.63-.19.98-.34l-10.25,8.29-.59-.73,8.92-7.21c.33.07.64.07.94-.01ZM501.64,563.98c-.12-.11-.23-.22-.33-.34l22.32-18.05.59.73-22.26,18c-.1-.12-.21-.23-.32-.34ZM502.83,565.02l22.08-17.85.59.73-21.89,17.71-.77-.58ZM504.6,539.92l8.73-7.06.74.91-8.73,7.06-.74-.91ZM504.65,566.16l21.53-17.41.59.73-21.23,17.17c-.42-.19-.72-.35-.89-.48ZM505.88,541.5l8.73-7.06.74.91-8.73,7.06-.74-.91ZM507.32,567.22c-.17-.05-.35-.1-.54-.17l20.68-16.73.59.73-20.2,16.33c-.19-.07-.37-.12-.54-.17ZM507.15,543.07l8.73-7.06.74.91-8.73,7.06-.74-.91ZM508.43,544.65l8.73-7.06.74.91-8.73,7.06-.74-.91ZM509.7,546.23l8.73-7.06.74.91-8.73,7.06-.74-.91ZM510.45,567.44c-.22.01-.45.04-.68.09l19.1-15.45.34.42.1.12-18.25,14.76c-.19.02-.39.03-.61.05ZM510.98,547.8l8.73-7.06.59.73-8.73,7.06-.59-.73ZM512.35,549.5l8.73-7.06.59.73-8.73,7.06-.59-.73ZM513.63,551.08l8.73-7.06.59.73-8.73,7.06-.59-.73ZM515.74,565.17c-.28.19-.58.38-.89.57l15.16-12.26.1.12-1.15.93-12.37,10.01c-.28.23-.56.44-.84.63Z"/>
      <path class="cls-1" d="M437.75,533.7c-.45-2.26-.46-4.24-.02-5.95.44-1.71,1.21-3.17,2.33-4.37,1.11-1.21,2.31-2.21,3.59-3l2.85-1.76c1.28-.79,2.7-1.41,4.25-1.85,1.56-.44,3.21-.48,4.95-.12,1.75.36,3.53,1.25,5.34,2.66,1.82,1.41,3.63,3.58,5.43,6.5l23.94,38.75c1.8,2.92,2.93,5.51,3.38,7.77.45,2.26.44,4.25-.02,5.97-.46,1.72-1.24,3.18-2.33,4.37-1.09,1.19-2.28,2.19-3.56,2.98l-2.84,1.76c-1.28.79-2.71,1.41-4.29,1.87-1.58.46-3.23.5-4.95.12-1.72-.37-3.49-1.27-5.31-2.68s-3.63-3.58-5.43-6.5l-23.94-38.75c-1.8-2.92-2.93-5.51-3.38-7.77ZM476.38,577.18c.38.62.76.96,1.14,1.04.38.07.88-.09,1.5-.47l2.85-1.76c.62-.38.97-.75,1.06-1.11.08-.36-.06-.85-.45-1.46l-27.46-44.46c-.38-.62-.75-.97-1.11-1.06-.36-.08-.85.06-1.47.45l-2.85,1.76c-.62.38-.98.76-1.09,1.13-.11.37.03.87.41,1.49l27.46,44.46Z"/>
      <path class="cls-1" d="M444.52,607.76c-1.37.25-2.76.17-4.18-.25-1.42-.42-2.8-1.26-4.14-2.53-1.35-1.27-2.58-3.14-3.69-5.61l-5.69-12.58c-.58-1.28-.88-2.71-.92-4.29-.03-1.58.6-3.15,1.89-4.71-1.84-.42-3.51-1.32-4.99-2.71s-2.61-2.93-3.38-4.63l-13.67-30.2,10.23-4.63,14.98,33.12c.3.66.62,1.06.97,1.19.34.13.85.04,1.51-.26l3.27-1.48-15.14-33.47-.61-1.35,1.28-.58,7.6-3.44,1.35-.61.61,1.35,30.93,68.36.61,1.35-1.35.61-13.64,6.17c-1.18.54-2.46.93-3.83,1.18ZM442.74,594.74c.15.33.42.65.82.96.4.31,1.19.19,2.37-.34l2.56-1.16-7.36-16.27-2.59,1.09c-1.18.54-1.8,1.03-1.86,1.48-.05.45,0,.87.18,1.25l5.88,13Z"/>
      <path class="cls-1" d="M379.41,548.91l23.58-7.45,1.41-.45.45,1.41,22.62,71.55.45,1.41-1.41.45-23.58,7.45-.45.14-.45-1.41-2.52-7.96-.45-1.41.45-.14,14.28-4.51-4.8-15.17-12.42,3.93-1.41.45-.45-1.41-2.59-8.18-.42-1.34,1.41-.45,12.42-3.93-8.46-26.77-14.28,4.51-.45.14-.42-1.34-2.52-7.96-.45-1.41.45-.14Z"/>
      <path class="cls-1" d="M352.07,561.03c.38-1.82,1.01-3.29,1.91-4.44.9-1.15,1.98-2.01,3.25-2.59,1.27-.58,2.54-.99,3.82-1.23l16.41-3.06,1.46-.27.27,1.46,13.74,73.77.27,1.46-1.46.27-16.41,3.06c-1.28.24-2.61.31-4,.23-1.39-.08-2.71-.5-3.96-1.25-1.25-.75-2.38-1.9-3.38-3.46-1-1.56-1.75-3.67-2.25-6.33l-9.49-50.92c-.5-2.66-.56-4.89-.18-6.71ZM363.41,564.39c-.14.5-.18.93-.12,1.29l9.49,50.92c.07.36.26.73.57,1.12s1.11.47,2.38.23l4.37-.81-10.17-54.6-4.39.74c-1.28.24-1.99.61-2.13,1.11Z"/>
      <path class="cls-1" d="M320.61,564.76c.68-2.2,1.62-3.94,2.82-5.24,1.2-1.29,2.58-2.2,4.13-2.73,1.56-.53,3.08-.84,4.58-.92l3.34-.19c1.5-.08,3.04.05,4.62.41,1.58.35,3.05,1.11,4.41,2.25,1.36,1.15,2.5,2.78,3.43,4.89.92,2.11,1.48,4.88,1.67,8.3l2.54,45.48c.19,3.43-.05,6.24-.74,8.44-.68,2.2-1.64,3.95-2.86,5.24-1.23,1.29-2.6,2.2-4.13,2.73-1.53.53-3.04.83-4.55.92l-3.34.19c-1.5.08-3.05-.05-4.66-.4-1.6-.35-3.07-1.11-4.41-2.25-1.34-1.15-2.47-2.78-3.39-4.89-.92-2.11-1.48-4.88-1.67-8.3l-2.54-45.48c-.19-3.43.05-6.24.74-8.44ZM333.81,621.4c.04.73.21,1.21.51,1.46.3.24.81.34,1.54.3l3.35-.19c.73-.04,1.21-.2,1.46-.47.25-.28.35-.78.31-1.5l-2.91-52.18c-.04-.73-.2-1.21-.47-1.46-.27-.24-.77-.35-1.5-.31l-3.35.19c-.73.04-1.22.2-1.5.47-.27.28-.39.78-.35,1.5l2.91,52.18Z"/>
      <path class="cls-1" d="M292.34,555.36l8.3.83,1.24.12.12,1.19,1.21,42.92,4.2-42.07.15-1.47,1.4.14,8.3.83,1.47.15-.15,1.48-7.45,74.67-.15,1.47-1.47-.15-10.87-1.08-2.1-.21-.2-1.12-3.44-44.08-11.45,42.52-.35,1.14-3.1-.31-10.01-1-1.4-.14.15-1.47,7.45-74.67.15-1.47,1.4.14,8.31.83,1.47.15-.15,1.47-4.2,42.07,9.66-41.84.35-1.14,1.16.12Z"/>
      <path class="cls-1" d="M211.69,609.48c-.11.12-.22.25-.33.37l-25.06-10.62c-.03-.46-.03-.8,0-1.01l25.71,10.9c-.11.12-.22.25-.33.37ZM209.54,611.36l-23.13-9.8-.07-1.04,24.06,10.2c-.22.13-.51.35-.87.65ZM212.83,608.19l-26.43-11.2.15-.95,26.86,11.38-.58.77ZM207.81,612.33c-.18.09-.34.17-.48.22l-20.18-8.55c-.1-.16-.18-.33-.24-.53-.06-.19-.11-.36-.17-.5l21.55,9.13c-.14.06-.29.13-.48.22ZM199.22,600.13l-12.35-5.23c.07-.42.14-.73.22-.92l10.63,4.5c.08.48.58,1.04,1.5,1.65ZM197.88,597.28l-10.49-4.44c.06-.14.11-.29.15-.45.04-.15.09-.3.15-.45l10.56,4.47-.37.86ZM198.74,595.27l-10.56-4.47c.03-.2.12-.5.29-.89l10.63,4.5-.37.86ZM188.99,607.06l-.8-1.1,17.02,7.21c-.23.01-.47.04-.71.08-.24.04-.48.06-.71.08l-14.79-6.27ZM199.47,593.54l-10.63-4.5.46-1.08,10.63,4.5-.46,1.08ZM200.29,591.6l-10.63-4.5.46-1.08,10.63,4.5-.46,1.08ZM201.11,589.67l-10.63-4.5.46-1.08,10.63,4.5-.46,1.08ZM216.42,566.33l-14-5.93c0-.27,0-.55.02-.84.01-.29.02-.57.02-.84l13.5,5.72.47,1.89ZM216.99,568.78l-14.36-6.09c-.05-.29-.09-.59-.13-.9-.04-.31-.06-.6-.06-.87l14.08,5.96.47,1.89ZM215.85,563.89l-13.36-5.66c.08-.73.2-1.33.34-1.8l12.71,5.39c.08.74.18,1.44.31,2.08ZM214.3,606.01c-.08.13-.16.27-.22.42l-11.56-4.9c.75.09,1.28-.02,1.59-.34l10.41,4.41c-.06.14-.13.28-.22.42ZM217.57,571.22l-14.58-6.18c-.09-.31-.16-.62-.2-.93-.04-.31-.08-.61-.13-.9l14.44,6.12.47,1.89ZM215.19,560.03c0,.27.04.52.11.74.08.22.14.48.18.77l-12.57-5.33c.05-.25.1-.47.15-.67.05-.19.13-.41.23-.63l.17-.41,11.63,4.93c.04.18.07.38.08.6ZM217.98,572.75c.06.32.16.65.31.98l-14.79-6.27-.47-1.89,14.72,6.24c.1.31.17.62.23.95ZM215.06,558.25c0,.33,0,.62,0,.89l-11.49-4.87.7-1.65,10.84,4.59c-.04.36-.06.71-.06,1.03ZM218.69,575.26c.06.32.16.65.31.98l-14.87-6.3c-.14-.33-.24-.66-.31-.98-.06-.32-.14-.64-.23-.95l14.79,6.27c.14.33.25.65.31.98ZM219.22,576.92c.1.31.18.58.24.82.07.24.15.52.24.83l-14.87-6.3c-.07-.24-.14-.47-.21-.69-.08-.22-.16-.48-.26-.79-.06-.13-.08-.22-.06-.26l14.79,6.27s.07.04.06.06c0,.02.01.04.06.07ZM215.29,556.31c-.05.19-.1.42-.15.67l-10.77-4.57.7-1.65,10.63,4.5-.09.21-.09.21c-.1.23-.17.44-.23.63ZM215.34,604.17c-.09.13-.16.27-.22.42l-10.49-4.44.37-.86,10.56,4.47c-.06.14-.13.28-.22.42ZM219.79,580.98c.06.25.11.53.16.83l-14.72-6.24c-.09-.32-.17-.61-.23-.86-.06-.25-.14-.54-.23-.86l14.79,6.27c.09.32.17.61.23.86ZM215.78,555.05l-10.63-4.5.7-1.65,10.63,4.5-.58,1.38-.12.27ZM220.41,584.29l-14.58-6.18c-.09-.32-.17-.61-.23-.86-.06-.25-.14-.54-.23-.86l14.72,6.24.31,1.66ZM216.12,602.63l-10.63-4.5.37-.86,10.63,4.5-.37.86ZM216.57,553.18l-10.63-4.5.7-1.65,10.63,4.5-.7,1.65ZM220.62,585.9c.04.24.06.5.05.78l-14.29-6.06c-.04-.3-.09-.58-.16-.83-.06-.25-.14-.54-.23-.86l14.51,6.15c.04.3.08.57.12.81ZM216.85,600.91l-10.63-4.5.46-1.08,10.63,4.5-.46,1.08ZM220.7,588.22c.02.23.02.49.01.77l-13.79-5.84-.31-1.66,14.08,5.96c0,.28,0,.54.01.77ZM217.36,551.31l-10.63-4.5,1.13-2.66c1.72-4.07,4.09-6.71,7.09-7.93,3-1.21,6.53-.96,10.6.77l3.16,1.34c4.07,1.72,6.71,4.09,7.93,7.09,1.21,3,.96,6.53-.77,10.6l-1.13,2.66-10.63-4.5,1.13-2.66c.2-.48.25-.96.15-1.46-.1-.49-.71-1.03-1.81-1.62-2.89-1.05-4.58-.98-5.09.22l-1.13,2.66ZM217.67,598.97l-10.63-4.5.46-1.08,10.63,4.5-.46,1.08ZM220.67,590.37c-.05.19-.07.39-.05.62l-13.21-5.6c-.07-.5-.18-.98-.33-1.41l13.65,5.78c.02.22,0,.42-.05.61ZM220.06,593.12l-12.21-5.17-.08-.21c0-.4-.06-.79-.18-1.18l12.78,5.42c-.11.52-.21.9-.31,1.14ZM218.49,597.03l-10.7-4.54c.01-.16.04-.33.09-.51.05-.18.07-.41.08-.69l10.99,4.66-.46,1.08ZM219.31,595.09l-11.35-4.81c-.01-.23-.02-.45-.02-.64,0-.2,0-.41-.02-.65l11.85,5.02-.46,1.08ZM221.65,559.99l10.63,4.5-.24.58-1.36-.58-7.9-3.35-1.36-.58.24-.58ZM222.44,558.13l10.63,4.5-.47,1.1-.23.55-10.63-4.5.23-.55.47-1.1ZM223.23,556.26l10.63,4.5-.7,1.65-10.63-4.5.7-1.65ZM224.02,554.39l10.63,4.5-.7,1.65-10.63-4.5.7-1.65Z"/>
      <path class="cls-1" d="M148.44,585.93l-1.21-.71.75-1.28,30.39-51.8c1.71-2.92,3.46-5.1,5.25-6.55,1.79-1.45,3.52-2.38,5.2-2.78,1.68-.4,3.31-.4,4.88.01,1.57.41,3,.99,4.3,1.76l2.89,1.7c1.3.76,2.5,1.72,3.6,2.88,1.1,1.16,1.9,2.57,2.39,4.25.49,1.68.54,3.65.15,5.92-.4,2.27-1.45,4.86-3.16,7.78l-30.39,51.8-.75,1.28-1.28-.75-7.2-4.22-1.21-.71.75-1.28,32.09-54.7c.37-.63.51-1.12.41-1.48-.09-.36-.45-.72-1.08-1.09l-2.89-1.7c-.63-.37-1.12-.51-1.48-.41-.36.09-.72.45-1.09,1.08l-32.09,54.7-.75,1.28-1.28-.75-7.2-4.22Z"/>
      <path class="cls-1" d="M121.64,566.13c-.86-1.09-1.44-2.36-1.74-3.81-.3-1.44-.2-3.06.29-4.85.49-1.79,1.56-3.75,3.21-5.89l8.43-10.93c.86-1.11,1.98-2.05,3.36-2.83,1.38-.77,3.07-.95,5.05-.54-.5-1.83-.48-3.72.04-5.68.53-1.96,1.36-3.68,2.5-5.16l20.24-26.25,8.9,6.86-22.19,28.79c-.44.58-.64,1.05-.6,1.41.05.37.36.77.94,1.21l2.84,2.19,22.43-29.1.9-1.17,1.11.86,6.61,5.1,1.17.9-.9,1.17-45.81,59.43-.9,1.17-1.17-.9-11.86-9.14c-1.03-.79-1.98-1.74-2.84-2.83ZM132.29,558.44c-.22.29-.38.68-.46,1.17-.08.49.39,1.14,1.42,1.93l2.22,1.71,10.91-14.15-2.18-1.78c-1.03-.79-1.76-1.11-2.18-.94s-.76.41-1.02.74l-8.71,11.3Z"/>
      <path class="cls-1" d="M110.51,510.75c1.71-.73,3.28-1.05,4.74-.97,1.45.08,2.78.48,3.98,1.19,1.2.71,2.26,1.52,3.19,2.43l4.94,4.88,25.31-25.65,1.04-1.05,1,.99,5.94,5.86,1.05,1.04-1.04,1.05-52.71,53.4-1.04,1.05-1.05-1.04-11.88-11.73c-.92-.91-1.75-1.96-2.47-3.16-.72-1.19-1.14-2.51-1.24-3.96-.1-1.45.2-3.04.91-4.75.71-1.71,2.01-3.53,3.91-5.46l10.03-10.16c1.9-1.92,3.7-3.25,5.41-3.98ZM103.07,532.77c-.26.26-.46.63-.6,1.11-.14.48.25,1.18,1.17,2.09l3.16,3.12,12.66-12.82-3.11-3.18c-.92-.91-1.63-1.29-2.1-1.14-.48.15-.86.37-1.15.67l-10.03,10.16Z"/>
      <path class="cls-1" d="M67.19,511.08c-.57-1.27-.83-2.64-.77-4.12.06-1.47.54-3.02,1.45-4.63.91-1.62,2.42-3.26,4.54-4.94l10.82-8.57c1.1-.87,2.42-1.52,3.94-1.93,1.53-.42,3.21-.18,5.03.69-.04-1.89.43-3.73,1.42-5.5.98-1.77,2.21-3.24,3.68-4.4l25.99-20.58,6.97,8.8-28.49,22.57c-.57.45-.88.86-.92,1.23-.04.37.16.83.61,1.4l2.23,2.81,28.8-22.81,1.16-.92.87,1.1,5.18,6.54.92,1.16-1.16.92-58.82,46.59-1.16.92-.92-1.16-9.3-11.74c-.81-1.02-1.5-2.16-2.07-3.43ZM79.39,506.2c-.28.23-.53.57-.73,1.03-.2.46.1,1.2.91,2.22l1.74,2.2,14-11.09-1.68-2.25c-.81-1.02-1.44-1.5-1.89-1.44s-.84.22-1.17.48l-11.19,8.86Z"/>
      <path class="cls-1" d="M121.21,453.86l.81,1.24-1.24.81-62.87,40.96-1.24.81-.81-1.24-4.56-6.99-.77-1.18,1.24-.81,62.87-40.96,1.24-.81.77,1.18,4.56,6.99Z"/>
      <path class="cls-1" d="M34.9,462.04c-.35-1.61-.27-3.25.21-4.95.49-1.69,1.5-3.4,3.04-5.12,1.53-1.72,3.82-3.38,6.86-4.98l4.49-2.36,1.31-.69.69,1.3,3.9,7.4.65,1.23-1.24.65-7.45,3.93c-.09.05-.21.16-.36.32-.15.17-.26.4-.33.71-.07.3-.07.7,0,1.19.08.49.3,1.08.67,1.76.65,1.24,1.29,2,1.9,2.26.61.27,1.1.3,1.47.11l6.62-3.49c.14-.07.56-.37,1.26-.88.7-.51,1.45-1.45,2.26-2.82,1.42-2.33,2.73-4.75,3.94-7.25,1.21-2.51,2.4-5.1,3.58-7.77,2.98-6.84,6.15-11.14,9.51-12.91l11.11-5.85c3.86-2.04,7.3-2.6,10.31-1.69,3.01.91,5.54,3.31,7.59,7.21l1.56,2.96c2.03,3.85,2.58,7.29,1.64,10.3-.94,3.02-3.34,5.54-7.2,7.58l-7.45,3.93-1.31.69-.04-.07-.65-1.24-3.93-7.45-.69-1.31,1.24-.65,7.45-3.93c.41-.22.68-.65.81-1.31.13-.65-.06-1.56-.55-2.71-.75-1.31-1.4-2.1-1.95-2.37-.55-.27-1.1-.25-1.66.04l-5.87,3.09-.76.4-.14.07c-.69.36-1.4.88-2.13,1.56-.73.68-1.19,1.22-1.4,1.62-1.46,2.47-2.85,5.03-4.16,7.66-1.32,2.63-2.61,5.37-3.87,8.21-2.99,6.93-6.15,11.26-9.46,13.01l-7.45,3.93c-3.04,1.6-5.7,2.55-7.98,2.84-2.28.29-4.27.15-5.95-.42-1.68-.58-3.09-1.45-4.2-2.62-1.12-1.17-2.03-2.42-2.73-3.75l-1.56-2.96c-.7-1.33-1.22-2.8-1.57-4.4Z"/>
      <path class="cls-1" d="M90.5,392.59l8.8,23.11.53,1.39-1.39.53-70.12,26.71-1.38.53-.53-1.38-8.8-23.11-.17-.44,1.38-.53,7.8-2.97,1.39-.53.17.44,5.33,14,14.87-5.66-4.64-12.17-.53-1.38,1.38-.53,8.02-3.05,1.31-.5.53,1.38,4.64,12.17,26.24-9.99-5.33-14-.17-.44,1.31-.5,7.8-2.97,1.38-.53.17.44Z"/>
      <path class="cls-1" d="M2.42,349.37c0-.34,0-.72,0-1.14l.77,7.61c-.09-.36-.16-.7-.22-1.04-.06-.33-.11-.68-.15-1.04l-.34-3.34c-.04-.36-.06-.71-.07-1.05ZM3.09,344.01c.08-.22.18-.42.29-.62.11-.19.21-.37.3-.54l1.84,18.08-.82-1.09-1.61-15.83ZM7.5,362.73c-.15-.11-.32-.21-.5-.3l-2.17-21.34c.16-.12.3-.25.43-.4.13-.14.27-.28.43-.4l2.31,22.74c-.18-.09-.35-.19-.5-.3ZM9.17,363.7l-2.47-24.37.88-.56,2.58,25.38c-.43-.16-.76-.31-.99-.45ZM11.78,364.69c-.16-.04-.32-.07-.48-.11l-2.69-26.46c.2-.12.5-.26.9-.41l2.75,27.08c-.16-.04-.32-.07-.48-.11ZM13.37,365l-2.82-27.78.91-.33,2.87,28.25-.96-.14ZM13.7,348.11l-1.17-11.49c.4-.14.71-.23.92-.25l1.12,11.02c-.36.09-.65.33-.87.71ZM15.91,365.29c-.16.02-.31,0-.47-.03l-1.17-11.56c.3.39.64.59,1,.6l1.12,11.02c-.16-.04-.32-.05-.47-.03ZM15.64,347.21l-1.13-11.1c.4-.04.7-.1.92-.17l1.13,11.17-.93.09ZM17.48,365.29l-1.12-11.02.93-.09,1.13,11.1c-.45.05-.76.05-.94.02ZM17.82,346.98l-1.13-11.17.86-.09h.07s1.13,11.17,1.13,11.17l-.93.09ZM19.6,346.8l-1.13-11.17,1.16-.12,1.13,11.17-1.16.12ZM19.67,365.22l-1.13-11.17.93-.09,1.13,11.17h-.07s-.86.09-.86.09ZM21.45,365.04l-1.13-11.17,1.16-.12,1.13,11.17-1.16.12ZM21.62,346.6l-1.14-11.17,1.16-.12,1.13,11.17-1.16.12ZM23.47,364.84l-1.13-11.17,1.16-.12,1.13,11.17-1.16.12ZM23.64,346.39l-1.13-11.17,1.16-.12,1.14,11.17-1.16.12ZM25.49,364.63l-1.14-11.17,1.16-.12,1.13,11.17-1.16.12ZM25.66,346.19l-1.13-11.17,1.16-.12,1.13,11.17-1.16.12ZM27.51,364.42l-1.13-11.17,1.16-.12,1.14,11.17-1.16.12ZM27.67,345.98l-1.13-11.17,1.16-.12,1.13,11.17-1.16.12ZM29.53,364.22l-1.13-11.17,1.16-.12,1.14,11.17-1.16.12ZM29.85,345.76l-1.13-11.17,1.16-.12,1.13,11.17-1.16.12ZM31.7,364l-1.13-11.17,1.16-.12,1.14,11.17-1.16.12ZM31.71,345.57l-1.13-11.17.78-.08.14,1.4.84,8.3.15,1.47-.78.08ZM33.56,363.81l-1.21-11.17,1.4-.14,1.13,11.17-1.32.13ZM35.5,363.61l-1.13-11.17,1.4-.14,1.13,11.17-1.4.14ZM37.52,363.41l-1.13-11.17,1.4-.14,1.13,11.17-1.4.14ZM39.54,363.2l-1.13-11.17,1.4-.14,1.13,11.17-1.4.14ZM41.86,362.97l-1.13-11.17,1.4-.14,1.13,11.17-1.4.14ZM43.73,362.78l-1.13-11.17,1.55-.16,1.13,11.17-1.55.16ZM45.74,362.57l-1.13-11.17,1.55-.16,1.13,11.17-1.55.16ZM47.76,362.37l-1.13-11.17,1.55-.16,1.13,11.17-1.55.16ZM49.78,362.16l-1.14-11.17,1.55-.16,1.13,11.17-1.55.16ZM51.8,361.96l-1.13-11.17,1.55-.16,1.13,11.17-1.55.16ZM53.74,361.76l-1.13-11.17,1.78-.18,1.13,11.17-1.78.18ZM54.55,331.96l1.13,11.17h-.08s-.15-1.47-.15-1.47l-.84-8.3-.14-1.4h.08ZM55.75,361.56l-1.13-11.17,1.78-.18,1.13,11.17-1.78.18ZM56.57,331.76l1.13,11.17-.7.07-1.09.11-1.13-11.17,1.09-.11.7-.07ZM57.77,361.35l-1.13-11.17,1.78-.18,1.13,11.17-1.78.18ZM58.59,331.55l1.14,11.17-1.79.18-1.13-11.17,1.78-.18ZM59.79,361.15l-1.13-11.17,1.78-.18,1.13,11.17-1.78.18ZM60.53,331.36l1.13,11.17-1.79.18-1.13-11.17,1.79-.18ZM61.73,360.95l-1.13-11.17,1.78-.18,1.14,11.17-1.79.18ZM62.55,331.15l1.13,11.17-1.79.18-1.13-11.17,1.63-.17.16-.02ZM63.75,360.74l-1.13-11.17,1.79-.18,1.13,11.17-.16.02-1.63.17ZM80.23,350.49c-.29,1.57-.95,3.04-1.98,4.4-1.04,1.36-2.55,2.55-4.54,3.56-1.99,1.01-4.64,1.71-7.94,2.1l-1.13-11.17,2.95-.3c.72-.07,1.2-.25,1.43-.54.23-.28.31-.79.24-1.51l-.34-3.34c-.07-.72-.25-1.2-.54-1.43-.29-.23-.79-.31-1.51-.24l-2.95.3-1.14-11.17c3.31-.34,6.04-.2,8.2.42,2.15.62,3.88,1.49,5.17,2.61,1.29,1.12,2.23,2.44,2.83,3.95.6,1.51.97,2.99,1.12,4.43l.34,3.34c.15,1.5.09,3.04-.2,4.61Z"/>
      <path class="cls-1" d="M1.35,296.47l.05-1.4,1.48.05,60.03,2.01c3.38.11,6.13.61,8.26,1.49,2.13.88,3.77,1.96,4.93,3.25,1.15,1.29,1.92,2.72,2.31,4.29.39,1.57.56,3.12.51,4.62l-.11,3.35c-.05,1.51-.32,3.02-.81,4.54-.49,1.52-1.36,2.89-2.6,4.13-1.24,1.23-2.95,2.22-5.13,2.95-2.18.73-4.97,1.04-8.34.93l-60.03-2.01-1.48-.05.05-1.48.28-8.34.05-1.4,1.48.05,63.38,2.12c.73.02,1.22-.09,1.49-.34.27-.25.42-.74.44-1.47l.11-3.35c.02-.73-.09-1.22-.34-1.49-.25-.27-.74-.42-1.47-.44l-63.38-2.12-1.48-.05.05-1.48.28-8.34Z"/>
      <path class="cls-1" d="M5.96,263.45c.55-1.28,1.39-2.4,2.51-3.35,1.13-.95,2.59-1.64,4.4-2.06s4.04-.42,6.71.01l13.63,2.19c1.39.22,2.75.76,4.09,1.61,1.34.85,2.3,2.24,2.88,4.18,1.37-1.31,3.04-2.2,5.01-2.67,1.97-.47,3.88-.56,5.73-.26l32.73,5.26-1.78,11.09-35.89-5.77c-.72-.12-1.23-.07-1.52.15-.3.22-.5.68-.62,1.4l-.57,3.54,36.27,5.83,1.46.24-.22,1.39-1.32,8.24-.24,1.46-1.46-.24-74.08-11.91-1.46-.23.23-1.46,2.38-14.79c.21-1.28.58-2.56,1.13-3.85ZM17.81,269.14c-.36-.06-.78,0-1.25.16-.47.16-.81.88-1.02,2.17l-.45,2.77,17.64,2.83.52-2.76c.21-1.28.14-2.07-.21-2.36-.35-.29-.73-.47-1.14-.54l-14.09-2.27Z"/>
      <path class="cls-1" d="M84.64,264.65l-.37,1.43-1.44-.37-72.65-18.75-1.44-.37.37-1.43,2.09-8.08.35-1.36,1.43.37,72.65,18.75,1.44.37-.35,1.36-2.09,8.08Z"/>
      <path class="cls-1" d="M89.56,223.03c1.75,1.49,2.99,3.05,3.7,4.66.71,1.61,1.01,3.24.88,4.87-.13,1.64-.44,3.16-.96,4.58l-1.14,3.14c-.51,1.42-1.25,2.78-2.19,4.09-.95,1.31-2.22,2.37-3.81,3.17-1.59.8-3.54,1.21-5.84,1.23-2.3.02-5.07-.56-8.29-1.73l-42.81-15.56c-3.23-1.17-5.71-2.5-7.47-4-1.75-1.49-2.98-3.06-3.69-4.69-.7-1.64-1-3.26-.88-4.87.12-1.61.43-3.13.95-4.54l1.14-3.14c.51-1.41,1.25-2.79,2.2-4.12.96-1.33,2.23-2.39,3.81-3.17,1.58-.78,3.53-1.17,5.83-1.19,2.3-.02,5.07.56,8.29,1.73l42.81,15.56c3.23,1.17,5.71,2.5,7.47,4ZM32.29,212.88c-.68-.25-1.2-.28-1.54-.1-.34.18-.64.61-.89,1.3l-1.15,3.15c-.25.68-.29,1.19-.14,1.53.16.33.58.62,1.26.87l49.12,17.86c.68.25,1.19.3,1.53.14.33-.16.62-.58.87-1.26l1.15-3.15c.25-.68.3-1.21.15-1.56-.15-.36-.56-.66-1.25-.91l-49.12-17.86Z"/>
      <path class="cls-1" d="M36.95,169.58c1.12-1.21,2.51-2.09,4.17-2.67,1.67-.57,3.64-.72,5.93-.46,2.29.27,4.96,1.19,8.01,2.75l4.51,2.31,1.32.68-.67,1.31-3.82,7.44-.64,1.24-1.25-.64-7.5-3.84c-.09-.05-.25-.08-.47-.11-.22-.03-.48.02-.77.13-.29.11-.61.34-.97.69-.35.35-.71.87-1.06,1.56-.64,1.25-.89,2.2-.76,2.85.13.65.39,1.07.75,1.26l6.66,3.42c.14.07.62.25,1.44.52.82.28,2.02.35,3.61.23,2.72-.18,5.45-.49,8.2-.95,2.75-.46,5.55-.97,8.41-1.54,7.31-1.49,12.65-1.37,16.03.36l11.18,5.73c3.89,1.99,6.32,4.48,7.31,7.46.98,2.98.47,6.43-1.54,10.36l-1.53,2.98c-1.99,3.88-4.49,6.3-7.49,7.26-3.01.96-6.45.45-10.34-1.54l-7.5-3.84-1.32-.68.04-.07.64-1.25,3.84-7.5.68-1.32,1.25.64,7.5,3.84c.42.21.93.18,1.54-.09.61-.27,1.24-.94,1.9-2,.64-1.37.91-2.35.81-2.96-.1-.61-.43-1.05-.98-1.34l-5.9-3.02-.76-.39-.14-.07c-.69-.36-1.53-.64-2.5-.84-.97-.21-1.68-.28-2.13-.21-2.86.23-5.75.56-8.66.99-2.91.44-5.89.95-8.95,1.55-7.39,1.53-12.75,1.44-16.08-.27l-7.5-3.84c-3.05-1.57-5.36-3.2-6.91-4.9-1.55-1.7-2.58-3.4-3.07-5.12-.5-1.71-.59-3.36-.27-4.95.32-1.58.82-3.05,1.5-4.39l1.53-2.98c.69-1.34,1.59-2.61,2.7-3.82Z"/>
      <path class="cls-1" d="M112.77,194.76l-.8,1.25-1.25-.8-63.14-40.55-1.25-.8.8-1.25,4.51-7.02.76-1.18,1.25.8,63.14,40.55,1.25.8-.76,1.18-4.51,7.02Z"/>
      <path class="cls-1" d="M75.64,113.06l.91-1.17,1.1.87,6.57,5.15,1.1.87-.91,1.17-5.3,6.75,51.37,40.29,1.17.92-.87,1.1-5.15,6.57-.91,1.17-1.17-.92-51.37-40.29-5.25,6.69-.92,1.17-1.1-.87-6.57-5.15-1.17-.92.91-1.17,17.54-22.23Z"/>
      <path class="cls-1" d="M106.74,80.94l1.34-1.3.91,1.61,20.31,35.83,24.28,25.03,1.03,1.06-1.06,1.03-5.89,5.72-1.06,1.03-1.03-1.06-24.22-24.97-36.09-20.52-1.7-.96,1.4-1.36,6.27-6.08.78-.76.98.57,18.94,11.62-11.66-18.58-.65-1,.84-.81,6.27-6.08Z"/>
    </g>
  </g>
</svg>